%TF.GenerationSoftware,KiCad,Pcbnew,8.0.4*%
%TF.CreationDate,2024-08-03T19:12:24-04:00*%
%TF.ProjectId,ws2812b-corner-left,77733238-3132-4622-9d63-6f726e65722d,rev?*%
%TF.SameCoordinates,Original*%
%TF.FileFunction,Legend,Top*%
%TF.FilePolarity,Positive*%
%FSLAX46Y46*%
G04 Gerber Fmt 4.6, Leading zero omitted, Abs format (unit mm)*
G04 Created by KiCad (PCBNEW 8.0.4) date 2024-08-03 19:12:24*
%MOMM*%
%LPD*%
G01*
G04 APERTURE LIST*
G04 Aperture macros list*
%AMRoundRect*
0 Rectangle with rounded corners*
0 $1 Rounding radius*
0 $2 $3 $4 $5 $6 $7 $8 $9 X,Y pos of 4 corners*
0 Add a 4 corners polygon primitive as box body*
4,1,4,$2,$3,$4,$5,$6,$7,$8,$9,$2,$3,0*
0 Add four circle primitives for the rounded corners*
1,1,$1+$1,$2,$3*
1,1,$1+$1,$4,$5*
1,1,$1+$1,$6,$7*
1,1,$1+$1,$8,$9*
0 Add four rect primitives between the rounded corners*
20,1,$1+$1,$2,$3,$4,$5,0*
20,1,$1+$1,$4,$5,$6,$7,0*
20,1,$1+$1,$6,$7,$8,$9,0*
20,1,$1+$1,$8,$9,$2,$3,0*%
G04 Aperture macros list end*
%ADD10C,0.150000*%
%ADD11C,0.100000*%
%ADD12C,0.120000*%
%ADD13R,4.000000X3.000000*%
%ADD14R,4.000000X2.000000*%
%ADD15RoundRect,0.225000X0.225000X0.250000X-0.225000X0.250000X-0.225000X-0.250000X0.225000X-0.250000X0*%
%ADD16R,3.000000X4.000000*%
%ADD17R,2.000000X4.000000*%
%ADD18R,1.500000X0.900000*%
G04 APERTURE END LIST*
D10*
X144357904Y-80253561D02*
X144453142Y-80301180D01*
X144453142Y-80301180D02*
X144595999Y-80301180D01*
X144595999Y-80301180D02*
X144738856Y-80253561D01*
X144738856Y-80253561D02*
X144834094Y-80158323D01*
X144834094Y-80158323D02*
X144881713Y-80063085D01*
X144881713Y-80063085D02*
X144929332Y-79872609D01*
X144929332Y-79872609D02*
X144929332Y-79729752D01*
X144929332Y-79729752D02*
X144881713Y-79539276D01*
X144881713Y-79539276D02*
X144834094Y-79444038D01*
X144834094Y-79444038D02*
X144738856Y-79348800D01*
X144738856Y-79348800D02*
X144595999Y-79301180D01*
X144595999Y-79301180D02*
X144500761Y-79301180D01*
X144500761Y-79301180D02*
X144357904Y-79348800D01*
X144357904Y-79348800D02*
X144310285Y-79396419D01*
X144310285Y-79396419D02*
X144310285Y-79729752D01*
X144310285Y-79729752D02*
X144500761Y-79729752D01*
X143881713Y-79301180D02*
X143881713Y-80301180D01*
X143881713Y-80301180D02*
X143310285Y-79301180D01*
X143310285Y-79301180D02*
X143310285Y-80301180D01*
X142834094Y-79301180D02*
X142834094Y-80301180D01*
X142834094Y-80301180D02*
X142595999Y-80301180D01*
X142595999Y-80301180D02*
X142453142Y-80253561D01*
X142453142Y-80253561D02*
X142357904Y-80158323D01*
X142357904Y-80158323D02*
X142310285Y-80063085D01*
X142310285Y-80063085D02*
X142262666Y-79872609D01*
X142262666Y-79872609D02*
X142262666Y-79729752D01*
X142262666Y-79729752D02*
X142310285Y-79539276D01*
X142310285Y-79539276D02*
X142357904Y-79444038D01*
X142357904Y-79444038D02*
X142453142Y-79348800D01*
X142453142Y-79348800D02*
X142595999Y-79301180D01*
X142595999Y-79301180D02*
X142834094Y-79301180D01*
X144881713Y-72570133D02*
X144119809Y-72570133D01*
X144500761Y-72189180D02*
X144500761Y-72951085D01*
X143167428Y-73189180D02*
X143643618Y-73189180D01*
X143643618Y-73189180D02*
X143691237Y-72712990D01*
X143691237Y-72712990D02*
X143643618Y-72760609D01*
X143643618Y-72760609D02*
X143548380Y-72808228D01*
X143548380Y-72808228D02*
X143310285Y-72808228D01*
X143310285Y-72808228D02*
X143215047Y-72760609D01*
X143215047Y-72760609D02*
X143167428Y-72712990D01*
X143167428Y-72712990D02*
X143119809Y-72617752D01*
X143119809Y-72617752D02*
X143119809Y-72379657D01*
X143119809Y-72379657D02*
X143167428Y-72284419D01*
X143167428Y-72284419D02*
X143215047Y-72236800D01*
X143215047Y-72236800D02*
X143310285Y-72189180D01*
X143310285Y-72189180D02*
X143548380Y-72189180D01*
X143548380Y-72189180D02*
X143643618Y-72236800D01*
X143643618Y-72236800D02*
X143691237Y-72284419D01*
X142834094Y-73189180D02*
X142500761Y-72189180D01*
X142500761Y-72189180D02*
X142167428Y-73189180D01*
X145286475Y-75745180D02*
X145286475Y-76745180D01*
X145286475Y-76745180D02*
X145048380Y-76745180D01*
X145048380Y-76745180D02*
X144905523Y-76697561D01*
X144905523Y-76697561D02*
X144810285Y-76602323D01*
X144810285Y-76602323D02*
X144762666Y-76507085D01*
X144762666Y-76507085D02*
X144715047Y-76316609D01*
X144715047Y-76316609D02*
X144715047Y-76173752D01*
X144715047Y-76173752D02*
X144762666Y-75983276D01*
X144762666Y-75983276D02*
X144810285Y-75888038D01*
X144810285Y-75888038D02*
X144905523Y-75792800D01*
X144905523Y-75792800D02*
X145048380Y-75745180D01*
X145048380Y-75745180D02*
X145286475Y-75745180D01*
X144095999Y-76745180D02*
X143905523Y-76745180D01*
X143905523Y-76745180D02*
X143810285Y-76697561D01*
X143810285Y-76697561D02*
X143715047Y-76602323D01*
X143715047Y-76602323D02*
X143667428Y-76411847D01*
X143667428Y-76411847D02*
X143667428Y-76078514D01*
X143667428Y-76078514D02*
X143715047Y-75888038D01*
X143715047Y-75888038D02*
X143810285Y-75792800D01*
X143810285Y-75792800D02*
X143905523Y-75745180D01*
X143905523Y-75745180D02*
X144095999Y-75745180D01*
X144095999Y-75745180D02*
X144191237Y-75792800D01*
X144191237Y-75792800D02*
X144286475Y-75888038D01*
X144286475Y-75888038D02*
X144334094Y-76078514D01*
X144334094Y-76078514D02*
X144334094Y-76411847D01*
X144334094Y-76411847D02*
X144286475Y-76602323D01*
X144286475Y-76602323D02*
X144191237Y-76697561D01*
X144191237Y-76697561D02*
X144095999Y-76745180D01*
X143238856Y-76745180D02*
X143238856Y-75935657D01*
X143238856Y-75935657D02*
X143191237Y-75840419D01*
X143191237Y-75840419D02*
X143143618Y-75792800D01*
X143143618Y-75792800D02*
X143048380Y-75745180D01*
X143048380Y-75745180D02*
X142857904Y-75745180D01*
X142857904Y-75745180D02*
X142762666Y-75792800D01*
X142762666Y-75792800D02*
X142715047Y-75840419D01*
X142715047Y-75840419D02*
X142667428Y-75935657D01*
X142667428Y-75935657D02*
X142667428Y-76745180D01*
X142334094Y-76745180D02*
X141762666Y-76745180D01*
X142048380Y-75745180D02*
X142048380Y-76745180D01*
X152233333Y-81799580D02*
X152185714Y-81847200D01*
X152185714Y-81847200D02*
X152042857Y-81894819D01*
X152042857Y-81894819D02*
X151947619Y-81894819D01*
X151947619Y-81894819D02*
X151804762Y-81847200D01*
X151804762Y-81847200D02*
X151709524Y-81751961D01*
X151709524Y-81751961D02*
X151661905Y-81656723D01*
X151661905Y-81656723D02*
X151614286Y-81466247D01*
X151614286Y-81466247D02*
X151614286Y-81323390D01*
X151614286Y-81323390D02*
X151661905Y-81132914D01*
X151661905Y-81132914D02*
X151709524Y-81037676D01*
X151709524Y-81037676D02*
X151804762Y-80942438D01*
X151804762Y-80942438D02*
X151947619Y-80894819D01*
X151947619Y-80894819D02*
X152042857Y-80894819D01*
X152042857Y-80894819D02*
X152185714Y-80942438D01*
X152185714Y-80942438D02*
X152233333Y-80990057D01*
X153185714Y-81894819D02*
X152614286Y-81894819D01*
X152900000Y-81894819D02*
X152900000Y-80894819D01*
X152900000Y-80894819D02*
X152804762Y-81037676D01*
X152804762Y-81037676D02*
X152709524Y-81132914D01*
X152709524Y-81132914D02*
X152614286Y-81180533D01*
X156029866Y-86375713D02*
X156029866Y-85613809D01*
X156410819Y-85994761D02*
X155648914Y-85994761D01*
X155410819Y-84661428D02*
X155410819Y-85137618D01*
X155410819Y-85137618D02*
X155887009Y-85185237D01*
X155887009Y-85185237D02*
X155839390Y-85137618D01*
X155839390Y-85137618D02*
X155791771Y-85042380D01*
X155791771Y-85042380D02*
X155791771Y-84804285D01*
X155791771Y-84804285D02*
X155839390Y-84709047D01*
X155839390Y-84709047D02*
X155887009Y-84661428D01*
X155887009Y-84661428D02*
X155982247Y-84613809D01*
X155982247Y-84613809D02*
X156220342Y-84613809D01*
X156220342Y-84613809D02*
X156315580Y-84661428D01*
X156315580Y-84661428D02*
X156363200Y-84709047D01*
X156363200Y-84709047D02*
X156410819Y-84804285D01*
X156410819Y-84804285D02*
X156410819Y-85042380D01*
X156410819Y-85042380D02*
X156363200Y-85137618D01*
X156363200Y-85137618D02*
X156315580Y-85185237D01*
X155410819Y-84328094D02*
X156410819Y-83994761D01*
X156410819Y-83994761D02*
X155410819Y-83661428D01*
X148346438Y-85851904D02*
X148298819Y-85947142D01*
X148298819Y-85947142D02*
X148298819Y-86089999D01*
X148298819Y-86089999D02*
X148346438Y-86232856D01*
X148346438Y-86232856D02*
X148441676Y-86328094D01*
X148441676Y-86328094D02*
X148536914Y-86375713D01*
X148536914Y-86375713D02*
X148727390Y-86423332D01*
X148727390Y-86423332D02*
X148870247Y-86423332D01*
X148870247Y-86423332D02*
X149060723Y-86375713D01*
X149060723Y-86375713D02*
X149155961Y-86328094D01*
X149155961Y-86328094D02*
X149251200Y-86232856D01*
X149251200Y-86232856D02*
X149298819Y-86089999D01*
X149298819Y-86089999D02*
X149298819Y-85994761D01*
X149298819Y-85994761D02*
X149251200Y-85851904D01*
X149251200Y-85851904D02*
X149203580Y-85804285D01*
X149203580Y-85804285D02*
X148870247Y-85804285D01*
X148870247Y-85804285D02*
X148870247Y-85994761D01*
X149298819Y-85375713D02*
X148298819Y-85375713D01*
X148298819Y-85375713D02*
X149298819Y-84804285D01*
X149298819Y-84804285D02*
X148298819Y-84804285D01*
X149298819Y-84328094D02*
X148298819Y-84328094D01*
X148298819Y-84328094D02*
X148298819Y-84089999D01*
X148298819Y-84089999D02*
X148346438Y-83947142D01*
X148346438Y-83947142D02*
X148441676Y-83851904D01*
X148441676Y-83851904D02*
X148536914Y-83804285D01*
X148536914Y-83804285D02*
X148727390Y-83756666D01*
X148727390Y-83756666D02*
X148870247Y-83756666D01*
X148870247Y-83756666D02*
X149060723Y-83804285D01*
X149060723Y-83804285D02*
X149155961Y-83851904D01*
X149155961Y-83851904D02*
X149251200Y-83947142D01*
X149251200Y-83947142D02*
X149298819Y-84089999D01*
X149298819Y-84089999D02*
X149298819Y-84328094D01*
X152854819Y-86113808D02*
X151854819Y-86113808D01*
X151854819Y-86113808D02*
X151854819Y-85875713D01*
X151854819Y-85875713D02*
X151902438Y-85732856D01*
X151902438Y-85732856D02*
X151997676Y-85637618D01*
X151997676Y-85637618D02*
X152092914Y-85589999D01*
X152092914Y-85589999D02*
X152283390Y-85542380D01*
X152283390Y-85542380D02*
X152426247Y-85542380D01*
X152426247Y-85542380D02*
X152616723Y-85589999D01*
X152616723Y-85589999D02*
X152711961Y-85637618D01*
X152711961Y-85637618D02*
X152807200Y-85732856D01*
X152807200Y-85732856D02*
X152854819Y-85875713D01*
X152854819Y-85875713D02*
X152854819Y-86113808D01*
X152854819Y-85113808D02*
X151854819Y-85113808D01*
X152854819Y-84637618D02*
X151854819Y-84637618D01*
X151854819Y-84637618D02*
X152854819Y-84066190D01*
X152854819Y-84066190D02*
X151854819Y-84066190D01*
X151661905Y-73098819D02*
X151661905Y-72098819D01*
X151661905Y-72098819D02*
X151900000Y-72098819D01*
X151900000Y-72098819D02*
X152042857Y-72146438D01*
X152042857Y-72146438D02*
X152138095Y-72241676D01*
X152138095Y-72241676D02*
X152185714Y-72336914D01*
X152185714Y-72336914D02*
X152233333Y-72527390D01*
X152233333Y-72527390D02*
X152233333Y-72670247D01*
X152233333Y-72670247D02*
X152185714Y-72860723D01*
X152185714Y-72860723D02*
X152138095Y-72955961D01*
X152138095Y-72955961D02*
X152042857Y-73051200D01*
X152042857Y-73051200D02*
X151900000Y-73098819D01*
X151900000Y-73098819D02*
X151661905Y-73098819D01*
X153185714Y-73098819D02*
X152614286Y-73098819D01*
X152900000Y-73098819D02*
X152900000Y-72098819D01*
X152900000Y-72098819D02*
X152804762Y-72241676D01*
X152804762Y-72241676D02*
X152709524Y-72336914D01*
X152709524Y-72336914D02*
X152614286Y-72384533D01*
X156835714Y-78254819D02*
X156264286Y-78254819D01*
X156550000Y-78254819D02*
X156550000Y-77254819D01*
X156550000Y-77254819D02*
X156454762Y-77397676D01*
X156454762Y-77397676D02*
X156359524Y-77492914D01*
X156359524Y-77492914D02*
X156264286Y-77540533D01*
D11*
%TO.C,J2*%
X139786000Y-81280000D02*
X146136000Y-81280000D01*
X139786000Y-71120000D02*
X146136000Y-71120000D01*
D12*
%TO.C,C1*%
X152540580Y-79500000D02*
X152259420Y-79500000D01*
X152540580Y-80520000D02*
X152259420Y-80520000D01*
D11*
%TO.C,J1*%
X147320000Y-88900000D02*
X147320000Y-82550000D01*
X157480000Y-88900000D02*
X157480000Y-82550000D01*
D12*
%TO.C,D1*%
X148750000Y-73450000D02*
X148750000Y-74600000D01*
X156050000Y-73450000D02*
X148750000Y-73450000D01*
X156050000Y-78950000D02*
X148750000Y-78950000D01*
%TD*%
%LPC*%
D13*
%TO.C,J2*%
X139786000Y-79700000D03*
D14*
X139786000Y-76200000D03*
D13*
X139786000Y-72700000D03*
%TD*%
D15*
%TO.C,C1*%
X153175000Y-80010000D03*
X151625000Y-80010000D03*
%TD*%
D16*
%TO.C,J1*%
X148900000Y-88900000D03*
D17*
X152400000Y-88900000D03*
D16*
X155900000Y-88900000D03*
%TD*%
D18*
%TO.C,D1*%
X154850000Y-77850000D03*
X154850000Y-74550000D03*
X149950000Y-74550000D03*
X149950000Y-77850000D03*
%TD*%
%LPD*%
M02*
