%TF.GenerationSoftware,KiCad,Pcbnew,8.0.4*%
%TF.CreationDate,2024-08-03T19:15:57-04:00*%
%TF.ProjectId,ws2812b-corner-right,77733238-3132-4622-9d63-6f726e65722d,rev?*%
%TF.SameCoordinates,Original*%
%TF.FileFunction,Legend,Top*%
%TF.FilePolarity,Positive*%
%FSLAX46Y46*%
G04 Gerber Fmt 4.6, Leading zero omitted, Abs format (unit mm)*
G04 Created by KiCad (PCBNEW 8.0.4) date 2024-08-03 19:15:57*
%MOMM*%
%LPD*%
G01*
G04 APERTURE LIST*
%ADD10C,0.150000*%
%ADD11C,0.100000*%
%ADD12C,0.120000*%
G04 APERTURE END LIST*
D10*
X160528095Y-72146438D02*
X160432857Y-72098819D01*
X160432857Y-72098819D02*
X160290000Y-72098819D01*
X160290000Y-72098819D02*
X160147143Y-72146438D01*
X160147143Y-72146438D02*
X160051905Y-72241676D01*
X160051905Y-72241676D02*
X160004286Y-72336914D01*
X160004286Y-72336914D02*
X159956667Y-72527390D01*
X159956667Y-72527390D02*
X159956667Y-72670247D01*
X159956667Y-72670247D02*
X160004286Y-72860723D01*
X160004286Y-72860723D02*
X160051905Y-72955961D01*
X160051905Y-72955961D02*
X160147143Y-73051200D01*
X160147143Y-73051200D02*
X160290000Y-73098819D01*
X160290000Y-73098819D02*
X160385238Y-73098819D01*
X160385238Y-73098819D02*
X160528095Y-73051200D01*
X160528095Y-73051200D02*
X160575714Y-73003580D01*
X160575714Y-73003580D02*
X160575714Y-72670247D01*
X160575714Y-72670247D02*
X160385238Y-72670247D01*
X161004286Y-73098819D02*
X161004286Y-72098819D01*
X161004286Y-72098819D02*
X161575714Y-73098819D01*
X161575714Y-73098819D02*
X161575714Y-72098819D01*
X162051905Y-73098819D02*
X162051905Y-72098819D01*
X162051905Y-72098819D02*
X162290000Y-72098819D01*
X162290000Y-72098819D02*
X162432857Y-72146438D01*
X162432857Y-72146438D02*
X162528095Y-72241676D01*
X162528095Y-72241676D02*
X162575714Y-72336914D01*
X162575714Y-72336914D02*
X162623333Y-72527390D01*
X162623333Y-72527390D02*
X162623333Y-72670247D01*
X162623333Y-72670247D02*
X162575714Y-72860723D01*
X162575714Y-72860723D02*
X162528095Y-72955961D01*
X162528095Y-72955961D02*
X162432857Y-73051200D01*
X162432857Y-73051200D02*
X162290000Y-73098819D01*
X162290000Y-73098819D02*
X162051905Y-73098819D01*
X160004286Y-79829866D02*
X160766191Y-79829866D01*
X160385238Y-80210819D02*
X160385238Y-79448914D01*
X161718571Y-79210819D02*
X161242381Y-79210819D01*
X161242381Y-79210819D02*
X161194762Y-79687009D01*
X161194762Y-79687009D02*
X161242381Y-79639390D01*
X161242381Y-79639390D02*
X161337619Y-79591771D01*
X161337619Y-79591771D02*
X161575714Y-79591771D01*
X161575714Y-79591771D02*
X161670952Y-79639390D01*
X161670952Y-79639390D02*
X161718571Y-79687009D01*
X161718571Y-79687009D02*
X161766190Y-79782247D01*
X161766190Y-79782247D02*
X161766190Y-80020342D01*
X161766190Y-80020342D02*
X161718571Y-80115580D01*
X161718571Y-80115580D02*
X161670952Y-80163200D01*
X161670952Y-80163200D02*
X161575714Y-80210819D01*
X161575714Y-80210819D02*
X161337619Y-80210819D01*
X161337619Y-80210819D02*
X161242381Y-80163200D01*
X161242381Y-80163200D02*
X161194762Y-80115580D01*
X162051905Y-79210819D02*
X162385238Y-80210819D01*
X162385238Y-80210819D02*
X162718571Y-79210819D01*
X159599524Y-76654819D02*
X159599524Y-75654819D01*
X159599524Y-75654819D02*
X159837619Y-75654819D01*
X159837619Y-75654819D02*
X159980476Y-75702438D01*
X159980476Y-75702438D02*
X160075714Y-75797676D01*
X160075714Y-75797676D02*
X160123333Y-75892914D01*
X160123333Y-75892914D02*
X160170952Y-76083390D01*
X160170952Y-76083390D02*
X160170952Y-76226247D01*
X160170952Y-76226247D02*
X160123333Y-76416723D01*
X160123333Y-76416723D02*
X160075714Y-76511961D01*
X160075714Y-76511961D02*
X159980476Y-76607200D01*
X159980476Y-76607200D02*
X159837619Y-76654819D01*
X159837619Y-76654819D02*
X159599524Y-76654819D01*
X160790000Y-75654819D02*
X160980476Y-75654819D01*
X160980476Y-75654819D02*
X161075714Y-75702438D01*
X161075714Y-75702438D02*
X161170952Y-75797676D01*
X161170952Y-75797676D02*
X161218571Y-75988152D01*
X161218571Y-75988152D02*
X161218571Y-76321485D01*
X161218571Y-76321485D02*
X161170952Y-76511961D01*
X161170952Y-76511961D02*
X161075714Y-76607200D01*
X161075714Y-76607200D02*
X160980476Y-76654819D01*
X160980476Y-76654819D02*
X160790000Y-76654819D01*
X160790000Y-76654819D02*
X160694762Y-76607200D01*
X160694762Y-76607200D02*
X160599524Y-76511961D01*
X160599524Y-76511961D02*
X160551905Y-76321485D01*
X160551905Y-76321485D02*
X160551905Y-75988152D01*
X160551905Y-75988152D02*
X160599524Y-75797676D01*
X160599524Y-75797676D02*
X160694762Y-75702438D01*
X160694762Y-75702438D02*
X160790000Y-75654819D01*
X161647143Y-75654819D02*
X161647143Y-76464342D01*
X161647143Y-76464342D02*
X161694762Y-76559580D01*
X161694762Y-76559580D02*
X161742381Y-76607200D01*
X161742381Y-76607200D02*
X161837619Y-76654819D01*
X161837619Y-76654819D02*
X162028095Y-76654819D01*
X162028095Y-76654819D02*
X162123333Y-76607200D01*
X162123333Y-76607200D02*
X162170952Y-76559580D01*
X162170952Y-76559580D02*
X162218571Y-76464342D01*
X162218571Y-76464342D02*
X162218571Y-75654819D01*
X162551905Y-75654819D02*
X163123333Y-75654819D01*
X162837619Y-76654819D02*
X162837619Y-75654819D01*
X152233333Y-81799580D02*
X152185714Y-81847200D01*
X152185714Y-81847200D02*
X152042857Y-81894819D01*
X152042857Y-81894819D02*
X151947619Y-81894819D01*
X151947619Y-81894819D02*
X151804762Y-81847200D01*
X151804762Y-81847200D02*
X151709524Y-81751961D01*
X151709524Y-81751961D02*
X151661905Y-81656723D01*
X151661905Y-81656723D02*
X151614286Y-81466247D01*
X151614286Y-81466247D02*
X151614286Y-81323390D01*
X151614286Y-81323390D02*
X151661905Y-81132914D01*
X151661905Y-81132914D02*
X151709524Y-81037676D01*
X151709524Y-81037676D02*
X151804762Y-80942438D01*
X151804762Y-80942438D02*
X151947619Y-80894819D01*
X151947619Y-80894819D02*
X152042857Y-80894819D01*
X152042857Y-80894819D02*
X152185714Y-80942438D01*
X152185714Y-80942438D02*
X152233333Y-80990057D01*
X153185714Y-81894819D02*
X152614286Y-81894819D01*
X152900000Y-81894819D02*
X152900000Y-80894819D01*
X152900000Y-80894819D02*
X152804762Y-81037676D01*
X152804762Y-81037676D02*
X152709524Y-81132914D01*
X152709524Y-81132914D02*
X152614286Y-81180533D01*
X156029866Y-86375713D02*
X156029866Y-85613809D01*
X156410819Y-85994761D02*
X155648914Y-85994761D01*
X155410819Y-84661428D02*
X155410819Y-85137618D01*
X155410819Y-85137618D02*
X155887009Y-85185237D01*
X155887009Y-85185237D02*
X155839390Y-85137618D01*
X155839390Y-85137618D02*
X155791771Y-85042380D01*
X155791771Y-85042380D02*
X155791771Y-84804285D01*
X155791771Y-84804285D02*
X155839390Y-84709047D01*
X155839390Y-84709047D02*
X155887009Y-84661428D01*
X155887009Y-84661428D02*
X155982247Y-84613809D01*
X155982247Y-84613809D02*
X156220342Y-84613809D01*
X156220342Y-84613809D02*
X156315580Y-84661428D01*
X156315580Y-84661428D02*
X156363200Y-84709047D01*
X156363200Y-84709047D02*
X156410819Y-84804285D01*
X156410819Y-84804285D02*
X156410819Y-85042380D01*
X156410819Y-85042380D02*
X156363200Y-85137618D01*
X156363200Y-85137618D02*
X156315580Y-85185237D01*
X155410819Y-84328094D02*
X156410819Y-83994761D01*
X156410819Y-83994761D02*
X155410819Y-83661428D01*
X148346438Y-85851904D02*
X148298819Y-85947142D01*
X148298819Y-85947142D02*
X148298819Y-86089999D01*
X148298819Y-86089999D02*
X148346438Y-86232856D01*
X148346438Y-86232856D02*
X148441676Y-86328094D01*
X148441676Y-86328094D02*
X148536914Y-86375713D01*
X148536914Y-86375713D02*
X148727390Y-86423332D01*
X148727390Y-86423332D02*
X148870247Y-86423332D01*
X148870247Y-86423332D02*
X149060723Y-86375713D01*
X149060723Y-86375713D02*
X149155961Y-86328094D01*
X149155961Y-86328094D02*
X149251200Y-86232856D01*
X149251200Y-86232856D02*
X149298819Y-86089999D01*
X149298819Y-86089999D02*
X149298819Y-85994761D01*
X149298819Y-85994761D02*
X149251200Y-85851904D01*
X149251200Y-85851904D02*
X149203580Y-85804285D01*
X149203580Y-85804285D02*
X148870247Y-85804285D01*
X148870247Y-85804285D02*
X148870247Y-85994761D01*
X149298819Y-85375713D02*
X148298819Y-85375713D01*
X148298819Y-85375713D02*
X149298819Y-84804285D01*
X149298819Y-84804285D02*
X148298819Y-84804285D01*
X149298819Y-84328094D02*
X148298819Y-84328094D01*
X148298819Y-84328094D02*
X148298819Y-84089999D01*
X148298819Y-84089999D02*
X148346438Y-83947142D01*
X148346438Y-83947142D02*
X148441676Y-83851904D01*
X148441676Y-83851904D02*
X148536914Y-83804285D01*
X148536914Y-83804285D02*
X148727390Y-83756666D01*
X148727390Y-83756666D02*
X148870247Y-83756666D01*
X148870247Y-83756666D02*
X149060723Y-83804285D01*
X149060723Y-83804285D02*
X149155961Y-83851904D01*
X149155961Y-83851904D02*
X149251200Y-83947142D01*
X149251200Y-83947142D02*
X149298819Y-84089999D01*
X149298819Y-84089999D02*
X149298819Y-84328094D01*
X152854819Y-86113808D02*
X151854819Y-86113808D01*
X151854819Y-86113808D02*
X151854819Y-85875713D01*
X151854819Y-85875713D02*
X151902438Y-85732856D01*
X151902438Y-85732856D02*
X151997676Y-85637618D01*
X151997676Y-85637618D02*
X152092914Y-85589999D01*
X152092914Y-85589999D02*
X152283390Y-85542380D01*
X152283390Y-85542380D02*
X152426247Y-85542380D01*
X152426247Y-85542380D02*
X152616723Y-85589999D01*
X152616723Y-85589999D02*
X152711961Y-85637618D01*
X152711961Y-85637618D02*
X152807200Y-85732856D01*
X152807200Y-85732856D02*
X152854819Y-85875713D01*
X152854819Y-85875713D02*
X152854819Y-86113808D01*
X152854819Y-85113808D02*
X151854819Y-85113808D01*
X152854819Y-84637618D02*
X151854819Y-84637618D01*
X151854819Y-84637618D02*
X152854819Y-84066190D01*
X152854819Y-84066190D02*
X151854819Y-84066190D01*
X151661905Y-73098819D02*
X151661905Y-72098819D01*
X151661905Y-72098819D02*
X151900000Y-72098819D01*
X151900000Y-72098819D02*
X152042857Y-72146438D01*
X152042857Y-72146438D02*
X152138095Y-72241676D01*
X152138095Y-72241676D02*
X152185714Y-72336914D01*
X152185714Y-72336914D02*
X152233333Y-72527390D01*
X152233333Y-72527390D02*
X152233333Y-72670247D01*
X152233333Y-72670247D02*
X152185714Y-72860723D01*
X152185714Y-72860723D02*
X152138095Y-72955961D01*
X152138095Y-72955961D02*
X152042857Y-73051200D01*
X152042857Y-73051200D02*
X151900000Y-73098819D01*
X151900000Y-73098819D02*
X151661905Y-73098819D01*
X153185714Y-73098819D02*
X152614286Y-73098819D01*
X152900000Y-73098819D02*
X152900000Y-72098819D01*
X152900000Y-72098819D02*
X152804762Y-72241676D01*
X152804762Y-72241676D02*
X152709524Y-72336914D01*
X152709524Y-72336914D02*
X152614286Y-72384533D01*
X156835714Y-78254819D02*
X156264286Y-78254819D01*
X156550000Y-78254819D02*
X156550000Y-77254819D01*
X156550000Y-77254819D02*
X156454762Y-77397676D01*
X156454762Y-77397676D02*
X156359524Y-77492914D01*
X156359524Y-77492914D02*
X156264286Y-77540533D01*
D11*
%TO.C,J2*%
X165100000Y-71120000D02*
X158750000Y-71120000D01*
X165100000Y-81280000D02*
X158750000Y-81280000D01*
D12*
%TO.C,C1*%
X152540580Y-79500000D02*
X152259420Y-79500000D01*
X152540580Y-80520000D02*
X152259420Y-80520000D01*
D11*
%TO.C,J1*%
X147320000Y-88900000D02*
X147320000Y-82550000D01*
X157480000Y-88900000D02*
X157480000Y-82550000D01*
D12*
%TO.C,D1*%
X148750000Y-73450000D02*
X148750000Y-74600000D01*
X156050000Y-73450000D02*
X148750000Y-73450000D01*
X156050000Y-78950000D02*
X148750000Y-78950000D01*
%TD*%
M02*
