%TF.GenerationSoftware,KiCad,Pcbnew,8.0.4*%
%TF.CreationDate,2024-08-03T19:15:56-04:00*%
%TF.ProjectId,ws2812b-corner-right,77733238-3132-4622-9d63-6f726e65722d,rev?*%
%TF.SameCoordinates,Original*%
%TF.FileFunction,Copper,L1,Top*%
%TF.FilePolarity,Positive*%
%FSLAX46Y46*%
G04 Gerber Fmt 4.6, Leading zero omitted, Abs format (unit mm)*
G04 Created by KiCad (PCBNEW 8.0.4) date 2024-08-03 19:15:56*
%MOMM*%
%LPD*%
G01*
G04 APERTURE LIST*
G04 Aperture macros list*
%AMRoundRect*
0 Rectangle with rounded corners*
0 $1 Rounding radius*
0 $2 $3 $4 $5 $6 $7 $8 $9 X,Y pos of 4 corners*
0 Add a 4 corners polygon primitive as box body*
4,1,4,$2,$3,$4,$5,$6,$7,$8,$9,$2,$3,0*
0 Add four circle primitives for the rounded corners*
1,1,$1+$1,$2,$3*
1,1,$1+$1,$4,$5*
1,1,$1+$1,$6,$7*
1,1,$1+$1,$8,$9*
0 Add four rect primitives between the rounded corners*
20,1,$1+$1,$2,$3,$4,$5,0*
20,1,$1+$1,$4,$5,$6,$7,0*
20,1,$1+$1,$6,$7,$8,$9,0*
20,1,$1+$1,$8,$9,$2,$3,0*%
G04 Aperture macros list end*
%TA.AperFunction,SMDPad,CuDef*%
%ADD10R,4.000000X3.000000*%
%TD*%
%TA.AperFunction,SMDPad,CuDef*%
%ADD11R,4.000000X2.000000*%
%TD*%
%TA.AperFunction,SMDPad,CuDef*%
%ADD12RoundRect,0.225000X0.225000X0.250000X-0.225000X0.250000X-0.225000X-0.250000X0.225000X-0.250000X0*%
%TD*%
%TA.AperFunction,SMDPad,CuDef*%
%ADD13R,3.000000X4.000000*%
%TD*%
%TA.AperFunction,SMDPad,CuDef*%
%ADD14R,2.000000X4.000000*%
%TD*%
%TA.AperFunction,SMDPad,CuDef*%
%ADD15R,1.500000X0.900000*%
%TD*%
%TA.AperFunction,Conductor*%
%ADD16C,0.254000*%
%TD*%
%TA.AperFunction,Conductor*%
%ADD17C,0.762000*%
%TD*%
G04 APERTURE END LIST*
D10*
%TO.P,J2,1,Pin_1*%
%TO.N,GND*%
X165100000Y-72700000D03*
D11*
%TO.P,J2,2,Pin_2*%
%TO.N,Net-(D1-DOUT)*%
X165100000Y-76200000D03*
D10*
%TO.P,J2,3,Pin_3*%
%TO.N,+5V*%
X165100000Y-79700000D03*
%TD*%
D12*
%TO.P,C1,1*%
%TO.N,+5V*%
X153175000Y-80010000D03*
%TO.P,C1,2*%
%TO.N,GND*%
X151625000Y-80010000D03*
%TD*%
D13*
%TO.P,J1,1,Pin_1*%
%TO.N,GND*%
X148900000Y-88900000D03*
D14*
%TO.P,J1,2,Pin_2*%
%TO.N,Net-(D1-DIN)*%
X152400000Y-88900000D03*
D13*
%TO.P,J1,3,Pin_3*%
%TO.N,+5V*%
X155900000Y-88900000D03*
%TD*%
D15*
%TO.P,D1,1,VDD*%
%TO.N,+5V*%
X154850000Y-77850000D03*
%TO.P,D1,2,DOUT*%
%TO.N,Net-(D1-DOUT)*%
X154850000Y-74550000D03*
%TO.P,D1,3,VSS*%
%TO.N,GND*%
X149950000Y-74550000D03*
%TO.P,D1,4,DIN*%
%TO.N,Net-(D1-DIN)*%
X149950000Y-77850000D03*
%TD*%
D16*
%TO.N,Net-(D1-DIN)*%
X149950000Y-80862000D02*
X149950000Y-77850000D01*
X152400000Y-83312000D02*
X149950000Y-80862000D01*
X152400000Y-88900000D02*
X152400000Y-83312000D01*
%TO.N,Net-(D1-DOUT)*%
X160020000Y-76200000D02*
X158370000Y-74550000D01*
X158370000Y-74550000D02*
X154850000Y-74550000D01*
X165100000Y-76200000D02*
X160020000Y-76200000D01*
D17*
%TO.N,GND*%
X148336000Y-84328000D02*
X148900000Y-84892000D01*
X148788000Y-72700000D02*
X148336000Y-73152000D01*
X165100000Y-72700000D02*
X148788000Y-72700000D01*
X148336000Y-73152000D02*
X148336000Y-84328000D01*
X148900000Y-84892000D02*
X148900000Y-88900000D01*
%TO.N,+5V*%
X156774000Y-79700000D02*
X155900000Y-80574000D01*
X155900000Y-80574000D02*
X155900000Y-88900000D01*
X165100000Y-79700000D02*
X156774000Y-79700000D01*
%TD*%
%TA.AperFunction,Conductor*%
%TO.N,+5V*%
G36*
X159470531Y-76219213D02*
G01*
X159507076Y-76269513D01*
X159512000Y-76300600D01*
X159512000Y-77724000D01*
X162767444Y-77724000D01*
X162826575Y-77743213D01*
X162863120Y-77793513D01*
X162863120Y-77855687D01*
X162838579Y-77895735D01*
X162772358Y-77961955D01*
X162714835Y-78074851D01*
X162714834Y-78074854D01*
X162700000Y-78168512D01*
X162700000Y-78168516D01*
X162700001Y-80932900D01*
X162680788Y-80992031D01*
X162630488Y-81028576D01*
X162599401Y-81033500D01*
X157668102Y-81033500D01*
X157540817Y-81067606D01*
X157540812Y-81067608D01*
X157426685Y-81133500D01*
X157333500Y-81226685D01*
X157267608Y-81340812D01*
X157267606Y-81340817D01*
X157233500Y-81468102D01*
X157233500Y-86399400D01*
X157214287Y-86458531D01*
X157163987Y-86495076D01*
X157132900Y-86500000D01*
X154368521Y-86500000D01*
X154274849Y-86514835D01*
X154161955Y-86572358D01*
X154095735Y-86638579D01*
X154040337Y-86666805D01*
X153978929Y-86657079D01*
X153934965Y-86613115D01*
X153924000Y-86567444D01*
X153924000Y-83058000D01*
X152727193Y-83058000D01*
X152668062Y-83038787D01*
X152656058Y-83028535D01*
X152429465Y-82801942D01*
X152401239Y-82746544D01*
X152400000Y-82730807D01*
X152400000Y-80835996D01*
X152419213Y-80776865D01*
X152469513Y-80740320D01*
X152531687Y-80740320D01*
X152562264Y-80756510D01*
X152563892Y-80757773D01*
X152699811Y-80838155D01*
X152699812Y-80838156D01*
X152851447Y-80882210D01*
X152886877Y-80884999D01*
X152886898Y-80885000D01*
X152975000Y-80885000D01*
X153375000Y-80885000D01*
X153463102Y-80885000D01*
X153463122Y-80884999D01*
X153498552Y-80882210D01*
X153650187Y-80838156D01*
X153650188Y-80838155D01*
X153786110Y-80757771D01*
X153897771Y-80646110D01*
X153978155Y-80510188D01*
X153978156Y-80510187D01*
X154022210Y-80358552D01*
X154024999Y-80323122D01*
X154025000Y-80323102D01*
X154025000Y-80210000D01*
X153375000Y-80210000D01*
X153375000Y-80885000D01*
X152975000Y-80885000D01*
X152975000Y-79810000D01*
X153375000Y-79810000D01*
X154025000Y-79810000D01*
X154025000Y-79696897D01*
X154024999Y-79696877D01*
X154022210Y-79661447D01*
X153978156Y-79509812D01*
X153978155Y-79509811D01*
X153897771Y-79373889D01*
X153786110Y-79262228D01*
X153650188Y-79181844D01*
X153650187Y-79181843D01*
X153498552Y-79137789D01*
X153463122Y-79135000D01*
X153375000Y-79135000D01*
X153375000Y-79810000D01*
X152975000Y-79810000D01*
X152975000Y-79135000D01*
X152886877Y-79135000D01*
X152851447Y-79137789D01*
X152699812Y-79181843D01*
X152699811Y-79181844D01*
X152563882Y-79262232D01*
X152562256Y-79263494D01*
X152560961Y-79263960D01*
X152558442Y-79265450D01*
X152558157Y-79264969D01*
X152503757Y-79284553D01*
X152444052Y-79267206D01*
X152405946Y-79218077D01*
X152400000Y-79184003D01*
X152400000Y-78331478D01*
X153700001Y-78331478D01*
X153714835Y-78425150D01*
X153772358Y-78538044D01*
X153861955Y-78627641D01*
X153974851Y-78685164D01*
X153974854Y-78685165D01*
X154068514Y-78699999D01*
X154650000Y-78699999D01*
X155050000Y-78699999D01*
X155631478Y-78699999D01*
X155725150Y-78685164D01*
X155838044Y-78627641D01*
X155927641Y-78538044D01*
X155985164Y-78425148D01*
X155985165Y-78425145D01*
X155999999Y-78331487D01*
X156000000Y-78331483D01*
X156000000Y-78050000D01*
X155050000Y-78050000D01*
X155050000Y-78699999D01*
X154650000Y-78699999D01*
X154650000Y-78050000D01*
X153700001Y-78050000D01*
X153700001Y-78331478D01*
X152400000Y-78331478D01*
X152400000Y-77368512D01*
X153700000Y-77368512D01*
X153700000Y-77650000D01*
X154650000Y-77650000D01*
X155050000Y-77650000D01*
X155999999Y-77650000D01*
X155999999Y-77368521D01*
X155985164Y-77274849D01*
X155927641Y-77161955D01*
X155838044Y-77072358D01*
X155725148Y-77014835D01*
X155725145Y-77014834D01*
X155631487Y-77000000D01*
X155050000Y-77000000D01*
X155050000Y-77650000D01*
X154650000Y-77650000D01*
X154650000Y-77000000D01*
X154068521Y-77000000D01*
X153974849Y-77014835D01*
X153861955Y-77072358D01*
X153772358Y-77161955D01*
X153714835Y-77274851D01*
X153714834Y-77274854D01*
X153700000Y-77368512D01*
X152400000Y-77368512D01*
X152400000Y-76300600D01*
X152419213Y-76241469D01*
X152469513Y-76204924D01*
X152500600Y-76200000D01*
X159411400Y-76200000D01*
X159470531Y-76219213D01*
G37*
%TD.AperFunction*%
%TD*%
%TA.AperFunction,Conductor*%
%TO.N,GND*%
G36*
X162658531Y-71385713D02*
G01*
X162695076Y-71436013D01*
X162700000Y-71467100D01*
X162700000Y-74231478D01*
X162714835Y-74325150D01*
X162772358Y-74438044D01*
X162838579Y-74504265D01*
X162866805Y-74559663D01*
X162857079Y-74621071D01*
X162813115Y-74665035D01*
X162767444Y-74676000D01*
X159512000Y-74676000D01*
X159512000Y-74909607D01*
X159492787Y-74968738D01*
X159442487Y-75005283D01*
X159380313Y-75005283D01*
X159340265Y-74980742D01*
X158980594Y-74621071D01*
X158604247Y-74244724D01*
X158517254Y-74194499D01*
X158517247Y-74194496D01*
X158420229Y-74168500D01*
X158420225Y-74168500D01*
X155954893Y-74168500D01*
X155895762Y-74149287D01*
X155859217Y-74098987D01*
X155854778Y-74077764D01*
X155854499Y-74074936D01*
X155854499Y-74074934D01*
X155839734Y-74000699D01*
X155839732Y-74000697D01*
X155839732Y-74000695D01*
X155783485Y-73916517D01*
X155783483Y-73916515D01*
X155741678Y-73888582D01*
X155699301Y-73860266D01*
X155699300Y-73860265D01*
X155699299Y-73860265D01*
X155643498Y-73849166D01*
X155625067Y-73845500D01*
X155625066Y-73845500D01*
X154074934Y-73845500D01*
X154000698Y-73860266D01*
X154000695Y-73860267D01*
X153916517Y-73916514D01*
X153916515Y-73916516D01*
X153860265Y-74000700D01*
X153845500Y-74074933D01*
X153845500Y-75025065D01*
X153860266Y-75099301D01*
X153860267Y-75099304D01*
X153916514Y-75183482D01*
X153916515Y-75183483D01*
X153916516Y-75183484D01*
X154000699Y-75239734D01*
X154074933Y-75254500D01*
X155625066Y-75254499D01*
X155699301Y-75239734D01*
X155783484Y-75183484D01*
X155839734Y-75099301D01*
X155854500Y-75025067D01*
X155854500Y-75025062D01*
X155854779Y-75022238D01*
X155855299Y-75021048D01*
X155855464Y-75020220D01*
X155855645Y-75020256D01*
X155879695Y-74965275D01*
X155933336Y-74933837D01*
X155954894Y-74931500D01*
X158170307Y-74931500D01*
X158229438Y-74950713D01*
X158241442Y-74960965D01*
X158800743Y-75520266D01*
X158828969Y-75575663D01*
X158819243Y-75637071D01*
X158775280Y-75681035D01*
X158729608Y-75692000D01*
X151892000Y-75692000D01*
X151892000Y-79034400D01*
X151872787Y-79093531D01*
X151849683Y-79110316D01*
X151825000Y-79135000D01*
X151825000Y-80885000D01*
X151841172Y-80901172D01*
X151850531Y-80904213D01*
X151887076Y-80954513D01*
X151892000Y-80985600D01*
X151892000Y-82021607D01*
X151872787Y-82080738D01*
X151822487Y-82117283D01*
X151760313Y-82117283D01*
X151720265Y-82092742D01*
X150360965Y-80733442D01*
X150332739Y-80678044D01*
X150331500Y-80662307D01*
X150331500Y-80323122D01*
X150775000Y-80323122D01*
X150777789Y-80358552D01*
X150821843Y-80510187D01*
X150821844Y-80510188D01*
X150902228Y-80646110D01*
X151013889Y-80757771D01*
X151149811Y-80838155D01*
X151149812Y-80838156D01*
X151301447Y-80882210D01*
X151336877Y-80884999D01*
X151336898Y-80885000D01*
X151425000Y-80885000D01*
X151425000Y-80210000D01*
X150775000Y-80210000D01*
X150775000Y-80323122D01*
X150331500Y-80323122D01*
X150331500Y-79696877D01*
X150775000Y-79696877D01*
X150775000Y-79810000D01*
X151425000Y-79810000D01*
X151425000Y-79135000D01*
X151336877Y-79135000D01*
X151301447Y-79137789D01*
X151149812Y-79181843D01*
X151149811Y-79181844D01*
X151013889Y-79262228D01*
X150902228Y-79373889D01*
X150821844Y-79509811D01*
X150821843Y-79509812D01*
X150777789Y-79661447D01*
X150775000Y-79696877D01*
X150331500Y-79696877D01*
X150331500Y-78655099D01*
X150350713Y-78595968D01*
X150401013Y-78559423D01*
X150432100Y-78554499D01*
X150725066Y-78554499D01*
X150799301Y-78539734D01*
X150883484Y-78483484D01*
X150939734Y-78399301D01*
X150954500Y-78325067D01*
X150954499Y-77374934D01*
X150939734Y-77300699D01*
X150939732Y-77300697D01*
X150939732Y-77300695D01*
X150883485Y-77216517D01*
X150883483Y-77216515D01*
X150799302Y-77160267D01*
X150799301Y-77160266D01*
X150799300Y-77160265D01*
X150799299Y-77160265D01*
X150743498Y-77149166D01*
X150725067Y-77145500D01*
X150725066Y-77145500D01*
X149174934Y-77145500D01*
X149100698Y-77160266D01*
X149100695Y-77160267D01*
X149016517Y-77216514D01*
X149016515Y-77216516D01*
X148960265Y-77300700D01*
X148945500Y-77374933D01*
X148945500Y-78325065D01*
X148960266Y-78399301D01*
X148960267Y-78399304D01*
X149016514Y-78483482D01*
X149016515Y-78483483D01*
X149016516Y-78483484D01*
X149100699Y-78539734D01*
X149174933Y-78554500D01*
X149467900Y-78554499D01*
X149527031Y-78573712D01*
X149563576Y-78624012D01*
X149568500Y-78655099D01*
X149568500Y-80912229D01*
X149594496Y-81009247D01*
X149594498Y-81009252D01*
X149594499Y-81009254D01*
X149628199Y-81067625D01*
X149644724Y-81096247D01*
X149644725Y-81096248D01*
X151434742Y-82886265D01*
X151462968Y-82941663D01*
X151453242Y-83003071D01*
X151409278Y-83047035D01*
X151363607Y-83058000D01*
X150876000Y-83058000D01*
X150876000Y-86567444D01*
X150856787Y-86626575D01*
X150806487Y-86663120D01*
X150744313Y-86663120D01*
X150704265Y-86638579D01*
X150638044Y-86572358D01*
X150525148Y-86514835D01*
X150525145Y-86514834D01*
X150431487Y-86500000D01*
X147667100Y-86500000D01*
X147607969Y-86480787D01*
X147571424Y-86430487D01*
X147566500Y-86399400D01*
X147566500Y-75031478D01*
X148800001Y-75031478D01*
X148814835Y-75125150D01*
X148872358Y-75238044D01*
X148961955Y-75327641D01*
X149074851Y-75385164D01*
X149074854Y-75385165D01*
X149168514Y-75399999D01*
X149750000Y-75399999D01*
X150150000Y-75399999D01*
X150731478Y-75399999D01*
X150825150Y-75385164D01*
X150938044Y-75327641D01*
X151027641Y-75238044D01*
X151085164Y-75125148D01*
X151085165Y-75125145D01*
X151099999Y-75031487D01*
X151100000Y-75031483D01*
X151100000Y-74750000D01*
X150150000Y-74750000D01*
X150150000Y-75399999D01*
X149750000Y-75399999D01*
X149750000Y-74750000D01*
X148800001Y-74750000D01*
X148800001Y-75031478D01*
X147566500Y-75031478D01*
X147566500Y-74068512D01*
X148800000Y-74068512D01*
X148800000Y-74350000D01*
X149750000Y-74350000D01*
X150150000Y-74350000D01*
X151099999Y-74350000D01*
X151099999Y-74068521D01*
X151085164Y-73974849D01*
X151027641Y-73861955D01*
X150938044Y-73772358D01*
X150825148Y-73714835D01*
X150825145Y-73714834D01*
X150731487Y-73700000D01*
X150150000Y-73700000D01*
X150150000Y-74350000D01*
X149750000Y-74350000D01*
X149750000Y-73700000D01*
X149168521Y-73700000D01*
X149074849Y-73714835D01*
X148961955Y-73772358D01*
X148872358Y-73861955D01*
X148814835Y-73974851D01*
X148814834Y-73974854D01*
X148800000Y-74068512D01*
X147566500Y-74068512D01*
X147566500Y-71467100D01*
X147585713Y-71407969D01*
X147636013Y-71371424D01*
X147667100Y-71366500D01*
X162599400Y-71366500D01*
X162658531Y-71385713D01*
G37*
%TD.AperFunction*%
%TD*%
M02*
