%TF.GenerationSoftware,KiCad,Pcbnew,8.0.4*%
%TF.CreationDate,2024-08-07T00:56:24-04:00*%
%TF.ProjectId,ws2815-corner-left,77733238-3135-42d6-936f-726e65722d6c,rev?*%
%TF.SameCoordinates,Original*%
%TF.FileFunction,Legend,Top*%
%TF.FilePolarity,Positive*%
%FSLAX46Y46*%
G04 Gerber Fmt 4.6, Leading zero omitted, Abs format (unit mm)*
G04 Created by KiCad (PCBNEW 8.0.4) date 2024-08-07 00:56:24*
%MOMM*%
%LPD*%
G01*
G04 APERTURE LIST*
G04 Aperture macros list*
%AMRoundRect*
0 Rectangle with rounded corners*
0 $1 Rounding radius*
0 $2 $3 $4 $5 $6 $7 $8 $9 X,Y pos of 4 corners*
0 Add a 4 corners polygon primitive as box body*
4,1,4,$2,$3,$4,$5,$6,$7,$8,$9,$2,$3,0*
0 Add four circle primitives for the rounded corners*
1,1,$1+$1,$2,$3*
1,1,$1+$1,$4,$5*
1,1,$1+$1,$6,$7*
1,1,$1+$1,$8,$9*
0 Add four rect primitives between the rounded corners*
20,1,$1+$1,$2,$3,$4,$5,0*
20,1,$1+$1,$4,$5,$6,$7,0*
20,1,$1+$1,$6,$7,$8,$9,0*
20,1,$1+$1,$8,$9,$2,$3,0*%
G04 Aperture macros list end*
%ADD10C,0.150000*%
%ADD11C,0.100000*%
%ADD12C,0.120000*%
%ADD13R,4.000000X1.650000*%
%ADD14R,1.650000X4.000000*%
%ADD15R,1.500000X1.000000*%
%ADD16RoundRect,0.225000X0.225000X0.250000X-0.225000X0.250000X-0.225000X-0.250000X0.225000X-0.250000X0*%
G04 APERTURE END LIST*
D10*
X145286475Y-74370180D02*
X145286475Y-75370180D01*
X145286475Y-75370180D02*
X145048380Y-75370180D01*
X145048380Y-75370180D02*
X144905523Y-75322561D01*
X144905523Y-75322561D02*
X144810285Y-75227323D01*
X144810285Y-75227323D02*
X144762666Y-75132085D01*
X144762666Y-75132085D02*
X144715047Y-74941609D01*
X144715047Y-74941609D02*
X144715047Y-74798752D01*
X144715047Y-74798752D02*
X144762666Y-74608276D01*
X144762666Y-74608276D02*
X144810285Y-74513038D01*
X144810285Y-74513038D02*
X144905523Y-74417800D01*
X144905523Y-74417800D02*
X145048380Y-74370180D01*
X145048380Y-74370180D02*
X145286475Y-74370180D01*
X144095999Y-75370180D02*
X143905523Y-75370180D01*
X143905523Y-75370180D02*
X143810285Y-75322561D01*
X143810285Y-75322561D02*
X143715047Y-75227323D01*
X143715047Y-75227323D02*
X143667428Y-75036847D01*
X143667428Y-75036847D02*
X143667428Y-74703514D01*
X143667428Y-74703514D02*
X143715047Y-74513038D01*
X143715047Y-74513038D02*
X143810285Y-74417800D01*
X143810285Y-74417800D02*
X143905523Y-74370180D01*
X143905523Y-74370180D02*
X144095999Y-74370180D01*
X144095999Y-74370180D02*
X144191237Y-74417800D01*
X144191237Y-74417800D02*
X144286475Y-74513038D01*
X144286475Y-74513038D02*
X144334094Y-74703514D01*
X144334094Y-74703514D02*
X144334094Y-75036847D01*
X144334094Y-75036847D02*
X144286475Y-75227323D01*
X144286475Y-75227323D02*
X144191237Y-75322561D01*
X144191237Y-75322561D02*
X144095999Y-75370180D01*
X143238856Y-75370180D02*
X143238856Y-74560657D01*
X143238856Y-74560657D02*
X143191237Y-74465419D01*
X143191237Y-74465419D02*
X143143618Y-74417800D01*
X143143618Y-74417800D02*
X143048380Y-74370180D01*
X143048380Y-74370180D02*
X142857904Y-74370180D01*
X142857904Y-74370180D02*
X142762666Y-74417800D01*
X142762666Y-74417800D02*
X142715047Y-74465419D01*
X142715047Y-74465419D02*
X142667428Y-74560657D01*
X142667428Y-74560657D02*
X142667428Y-75370180D01*
X142334094Y-75370180D02*
X141762666Y-75370180D01*
X142048380Y-74370180D02*
X142048380Y-75370180D01*
X144357904Y-80822561D02*
X144453142Y-80870180D01*
X144453142Y-80870180D02*
X144595999Y-80870180D01*
X144595999Y-80870180D02*
X144738856Y-80822561D01*
X144738856Y-80822561D02*
X144834094Y-80727323D01*
X144834094Y-80727323D02*
X144881713Y-80632085D01*
X144881713Y-80632085D02*
X144929332Y-80441609D01*
X144929332Y-80441609D02*
X144929332Y-80298752D01*
X144929332Y-80298752D02*
X144881713Y-80108276D01*
X144881713Y-80108276D02*
X144834094Y-80013038D01*
X144834094Y-80013038D02*
X144738856Y-79917800D01*
X144738856Y-79917800D02*
X144595999Y-79870180D01*
X144595999Y-79870180D02*
X144500761Y-79870180D01*
X144500761Y-79870180D02*
X144357904Y-79917800D01*
X144357904Y-79917800D02*
X144310285Y-79965419D01*
X144310285Y-79965419D02*
X144310285Y-80298752D01*
X144310285Y-80298752D02*
X144500761Y-80298752D01*
X143881713Y-79870180D02*
X143881713Y-80870180D01*
X143881713Y-80870180D02*
X143310285Y-79870180D01*
X143310285Y-79870180D02*
X143310285Y-80870180D01*
X142834094Y-79870180D02*
X142834094Y-80870180D01*
X142834094Y-80870180D02*
X142595999Y-80870180D01*
X142595999Y-80870180D02*
X142453142Y-80822561D01*
X142453142Y-80822561D02*
X142357904Y-80727323D01*
X142357904Y-80727323D02*
X142310285Y-80632085D01*
X142310285Y-80632085D02*
X142262666Y-80441609D01*
X142262666Y-80441609D02*
X142262666Y-80298752D01*
X142262666Y-80298752D02*
X142310285Y-80108276D01*
X142310285Y-80108276D02*
X142357904Y-80013038D01*
X142357904Y-80013038D02*
X142453142Y-79917800D01*
X142453142Y-79917800D02*
X142595999Y-79870180D01*
X142595999Y-79870180D02*
X142834094Y-79870180D01*
X144953142Y-77643990D02*
X144810285Y-77596371D01*
X144810285Y-77596371D02*
X144762666Y-77548752D01*
X144762666Y-77548752D02*
X144715047Y-77453514D01*
X144715047Y-77453514D02*
X144715047Y-77310657D01*
X144715047Y-77310657D02*
X144762666Y-77215419D01*
X144762666Y-77215419D02*
X144810285Y-77167800D01*
X144810285Y-77167800D02*
X144905523Y-77120180D01*
X144905523Y-77120180D02*
X145286475Y-77120180D01*
X145286475Y-77120180D02*
X145286475Y-78120180D01*
X145286475Y-78120180D02*
X144953142Y-78120180D01*
X144953142Y-78120180D02*
X144857904Y-78072561D01*
X144857904Y-78072561D02*
X144810285Y-78024942D01*
X144810285Y-78024942D02*
X144762666Y-77929704D01*
X144762666Y-77929704D02*
X144762666Y-77834466D01*
X144762666Y-77834466D02*
X144810285Y-77739228D01*
X144810285Y-77739228D02*
X144857904Y-77691609D01*
X144857904Y-77691609D02*
X144953142Y-77643990D01*
X144953142Y-77643990D02*
X145286475Y-77643990D01*
X144095999Y-78120180D02*
X143905523Y-78120180D01*
X143905523Y-78120180D02*
X143810285Y-78072561D01*
X143810285Y-78072561D02*
X143715047Y-77977323D01*
X143715047Y-77977323D02*
X143667428Y-77786847D01*
X143667428Y-77786847D02*
X143667428Y-77453514D01*
X143667428Y-77453514D02*
X143715047Y-77263038D01*
X143715047Y-77263038D02*
X143810285Y-77167800D01*
X143810285Y-77167800D02*
X143905523Y-77120180D01*
X143905523Y-77120180D02*
X144095999Y-77120180D01*
X144095999Y-77120180D02*
X144191237Y-77167800D01*
X144191237Y-77167800D02*
X144286475Y-77263038D01*
X144286475Y-77263038D02*
X144334094Y-77453514D01*
X144334094Y-77453514D02*
X144334094Y-77786847D01*
X144334094Y-77786847D02*
X144286475Y-77977323D01*
X144286475Y-77977323D02*
X144191237Y-78072561D01*
X144191237Y-78072561D02*
X144095999Y-78120180D01*
X143238856Y-78120180D02*
X143238856Y-77310657D01*
X143238856Y-77310657D02*
X143191237Y-77215419D01*
X143191237Y-77215419D02*
X143143618Y-77167800D01*
X143143618Y-77167800D02*
X143048380Y-77120180D01*
X143048380Y-77120180D02*
X142857904Y-77120180D01*
X142857904Y-77120180D02*
X142762666Y-77167800D01*
X142762666Y-77167800D02*
X142715047Y-77215419D01*
X142715047Y-77215419D02*
X142667428Y-77310657D01*
X142667428Y-77310657D02*
X142667428Y-78120180D01*
X142334094Y-78120180D02*
X141762666Y-78120180D01*
X142048380Y-77120180D02*
X142048380Y-78120180D01*
X145357904Y-72001133D02*
X144596000Y-72001133D01*
X144976952Y-71620180D02*
X144976952Y-72382085D01*
X143596000Y-71620180D02*
X144167428Y-71620180D01*
X143881714Y-71620180D02*
X143881714Y-72620180D01*
X143881714Y-72620180D02*
X143976952Y-72477323D01*
X143976952Y-72477323D02*
X144072190Y-72382085D01*
X144072190Y-72382085D02*
X144167428Y-72334466D01*
X143215047Y-72524942D02*
X143167428Y-72572561D01*
X143167428Y-72572561D02*
X143072190Y-72620180D01*
X143072190Y-72620180D02*
X142834095Y-72620180D01*
X142834095Y-72620180D02*
X142738857Y-72572561D01*
X142738857Y-72572561D02*
X142691238Y-72524942D01*
X142691238Y-72524942D02*
X142643619Y-72429704D01*
X142643619Y-72429704D02*
X142643619Y-72334466D01*
X142643619Y-72334466D02*
X142691238Y-72191609D01*
X142691238Y-72191609D02*
X143262666Y-71620180D01*
X143262666Y-71620180D02*
X142643619Y-71620180D01*
X142357904Y-72620180D02*
X142024571Y-71620180D01*
X142024571Y-71620180D02*
X141691238Y-72620180D01*
X154229819Y-86113808D02*
X153229819Y-86113808D01*
X153229819Y-86113808D02*
X153229819Y-85875713D01*
X153229819Y-85875713D02*
X153277438Y-85732856D01*
X153277438Y-85732856D02*
X153372676Y-85637618D01*
X153372676Y-85637618D02*
X153467914Y-85589999D01*
X153467914Y-85589999D02*
X153658390Y-85542380D01*
X153658390Y-85542380D02*
X153801247Y-85542380D01*
X153801247Y-85542380D02*
X153991723Y-85589999D01*
X153991723Y-85589999D02*
X154086961Y-85637618D01*
X154086961Y-85637618D02*
X154182200Y-85732856D01*
X154182200Y-85732856D02*
X154229819Y-85875713D01*
X154229819Y-85875713D02*
X154229819Y-86113808D01*
X154229819Y-85113808D02*
X153229819Y-85113808D01*
X154229819Y-84637618D02*
X153229819Y-84637618D01*
X153229819Y-84637618D02*
X154229819Y-84066190D01*
X154229819Y-84066190D02*
X153229819Y-84066190D01*
X147777438Y-85851904D02*
X147729819Y-85947142D01*
X147729819Y-85947142D02*
X147729819Y-86089999D01*
X147729819Y-86089999D02*
X147777438Y-86232856D01*
X147777438Y-86232856D02*
X147872676Y-86328094D01*
X147872676Y-86328094D02*
X147967914Y-86375713D01*
X147967914Y-86375713D02*
X148158390Y-86423332D01*
X148158390Y-86423332D02*
X148301247Y-86423332D01*
X148301247Y-86423332D02*
X148491723Y-86375713D01*
X148491723Y-86375713D02*
X148586961Y-86328094D01*
X148586961Y-86328094D02*
X148682200Y-86232856D01*
X148682200Y-86232856D02*
X148729819Y-86089999D01*
X148729819Y-86089999D02*
X148729819Y-85994761D01*
X148729819Y-85994761D02*
X148682200Y-85851904D01*
X148682200Y-85851904D02*
X148634580Y-85804285D01*
X148634580Y-85804285D02*
X148301247Y-85804285D01*
X148301247Y-85804285D02*
X148301247Y-85994761D01*
X148729819Y-85375713D02*
X147729819Y-85375713D01*
X147729819Y-85375713D02*
X148729819Y-84804285D01*
X148729819Y-84804285D02*
X147729819Y-84804285D01*
X148729819Y-84328094D02*
X147729819Y-84328094D01*
X147729819Y-84328094D02*
X147729819Y-84089999D01*
X147729819Y-84089999D02*
X147777438Y-83947142D01*
X147777438Y-83947142D02*
X147872676Y-83851904D01*
X147872676Y-83851904D02*
X147967914Y-83804285D01*
X147967914Y-83804285D02*
X148158390Y-83756666D01*
X148158390Y-83756666D02*
X148301247Y-83756666D01*
X148301247Y-83756666D02*
X148491723Y-83804285D01*
X148491723Y-83804285D02*
X148586961Y-83851904D01*
X148586961Y-83851904D02*
X148682200Y-83947142D01*
X148682200Y-83947142D02*
X148729819Y-84089999D01*
X148729819Y-84089999D02*
X148729819Y-84328094D01*
X150956009Y-85780475D02*
X151003628Y-85637618D01*
X151003628Y-85637618D02*
X151051247Y-85589999D01*
X151051247Y-85589999D02*
X151146485Y-85542380D01*
X151146485Y-85542380D02*
X151289342Y-85542380D01*
X151289342Y-85542380D02*
X151384580Y-85589999D01*
X151384580Y-85589999D02*
X151432200Y-85637618D01*
X151432200Y-85637618D02*
X151479819Y-85732856D01*
X151479819Y-85732856D02*
X151479819Y-86113808D01*
X151479819Y-86113808D02*
X150479819Y-86113808D01*
X150479819Y-86113808D02*
X150479819Y-85780475D01*
X150479819Y-85780475D02*
X150527438Y-85685237D01*
X150527438Y-85685237D02*
X150575057Y-85637618D01*
X150575057Y-85637618D02*
X150670295Y-85589999D01*
X150670295Y-85589999D02*
X150765533Y-85589999D01*
X150765533Y-85589999D02*
X150860771Y-85637618D01*
X150860771Y-85637618D02*
X150908390Y-85685237D01*
X150908390Y-85685237D02*
X150956009Y-85780475D01*
X150956009Y-85780475D02*
X150956009Y-86113808D01*
X151479819Y-85113808D02*
X150479819Y-85113808D01*
X151479819Y-84637618D02*
X150479819Y-84637618D01*
X150479819Y-84637618D02*
X151479819Y-84066190D01*
X151479819Y-84066190D02*
X150479819Y-84066190D01*
X156598866Y-86851904D02*
X156598866Y-86090000D01*
X156979819Y-86470952D02*
X156217914Y-86470952D01*
X156979819Y-85090000D02*
X156979819Y-85661428D01*
X156979819Y-85375714D02*
X155979819Y-85375714D01*
X155979819Y-85375714D02*
X156122676Y-85470952D01*
X156122676Y-85470952D02*
X156217914Y-85566190D01*
X156217914Y-85566190D02*
X156265533Y-85661428D01*
X156075057Y-84709047D02*
X156027438Y-84661428D01*
X156027438Y-84661428D02*
X155979819Y-84566190D01*
X155979819Y-84566190D02*
X155979819Y-84328095D01*
X155979819Y-84328095D02*
X156027438Y-84232857D01*
X156027438Y-84232857D02*
X156075057Y-84185238D01*
X156075057Y-84185238D02*
X156170295Y-84137619D01*
X156170295Y-84137619D02*
X156265533Y-84137619D01*
X156265533Y-84137619D02*
X156408390Y-84185238D01*
X156408390Y-84185238D02*
X156979819Y-84756666D01*
X156979819Y-84756666D02*
X156979819Y-84137619D01*
X155979819Y-83851904D02*
X156979819Y-83518571D01*
X156979819Y-83518571D02*
X155979819Y-83185238D01*
X151661905Y-73098819D02*
X151661905Y-72098819D01*
X151661905Y-72098819D02*
X151900000Y-72098819D01*
X151900000Y-72098819D02*
X152042857Y-72146438D01*
X152042857Y-72146438D02*
X152138095Y-72241676D01*
X152138095Y-72241676D02*
X152185714Y-72336914D01*
X152185714Y-72336914D02*
X152233333Y-72527390D01*
X152233333Y-72527390D02*
X152233333Y-72670247D01*
X152233333Y-72670247D02*
X152185714Y-72860723D01*
X152185714Y-72860723D02*
X152138095Y-72955961D01*
X152138095Y-72955961D02*
X152042857Y-73051200D01*
X152042857Y-73051200D02*
X151900000Y-73098819D01*
X151900000Y-73098819D02*
X151661905Y-73098819D01*
X153185714Y-73098819D02*
X152614286Y-73098819D01*
X152900000Y-73098819D02*
X152900000Y-72098819D01*
X152900000Y-72098819D02*
X152804762Y-72241676D01*
X152804762Y-72241676D02*
X152709524Y-72336914D01*
X152709524Y-72336914D02*
X152614286Y-72384533D01*
X152233333Y-81799580D02*
X152185714Y-81847200D01*
X152185714Y-81847200D02*
X152042857Y-81894819D01*
X152042857Y-81894819D02*
X151947619Y-81894819D01*
X151947619Y-81894819D02*
X151804762Y-81847200D01*
X151804762Y-81847200D02*
X151709524Y-81751961D01*
X151709524Y-81751961D02*
X151661905Y-81656723D01*
X151661905Y-81656723D02*
X151614286Y-81466247D01*
X151614286Y-81466247D02*
X151614286Y-81323390D01*
X151614286Y-81323390D02*
X151661905Y-81132914D01*
X151661905Y-81132914D02*
X151709524Y-81037676D01*
X151709524Y-81037676D02*
X151804762Y-80942438D01*
X151804762Y-80942438D02*
X151947619Y-80894819D01*
X151947619Y-80894819D02*
X152042857Y-80894819D01*
X152042857Y-80894819D02*
X152185714Y-80942438D01*
X152185714Y-80942438D02*
X152233333Y-80990057D01*
X153185714Y-81894819D02*
X152614286Y-81894819D01*
X152900000Y-81894819D02*
X152900000Y-80894819D01*
X152900000Y-80894819D02*
X152804762Y-81037676D01*
X152804762Y-81037676D02*
X152709524Y-81132914D01*
X152709524Y-81132914D02*
X152614286Y-81180533D01*
D11*
%TO.C,J2*%
X139786000Y-81280000D02*
X146136000Y-81280000D01*
X139786000Y-71120000D02*
X146136000Y-71120000D01*
%TO.C,J1*%
X147320000Y-88900000D02*
X147320000Y-82550000D01*
X157480000Y-88900000D02*
X157480000Y-82550000D01*
D12*
%TO.C,D1*%
X156050000Y-78950000D02*
X148750000Y-78950000D01*
X156050000Y-77800000D02*
X156050000Y-78950000D01*
X156050000Y-73450000D02*
X148750000Y-73450000D01*
%TO.C,C1*%
X152540580Y-79500000D02*
X152259420Y-79500000D01*
X152540580Y-80520000D02*
X152259420Y-80520000D01*
%TD*%
%LPC*%
D13*
%TO.C,J2*%
X139786000Y-80325000D03*
X139786000Y-77575000D03*
X139786000Y-74825000D03*
X139786000Y-72075000D03*
%TD*%
D14*
%TO.C,J1*%
X148275000Y-88900000D03*
X151025000Y-88900000D03*
X153775000Y-88900000D03*
X156525000Y-88900000D03*
%TD*%
D15*
%TO.C,D1*%
X154850000Y-77800000D03*
X154850000Y-76200000D03*
X154850000Y-74600000D03*
X149950000Y-74600000D03*
X149950000Y-76200000D03*
X149950000Y-77800000D03*
%TD*%
D16*
%TO.C,C1*%
X153175000Y-80010000D03*
X151625000Y-80010000D03*
%TD*%
%LPD*%
M02*
