%TF.GenerationSoftware,KiCad,Pcbnew,8.0.4*%
%TF.CreationDate,2024-08-07T00:56:22-04:00*%
%TF.ProjectId,ws2815-corner-left,77733238-3135-42d6-936f-726e65722d6c,rev?*%
%TF.SameCoordinates,Original*%
%TF.FileFunction,Copper,L1,Top*%
%TF.FilePolarity,Positive*%
%FSLAX46Y46*%
G04 Gerber Fmt 4.6, Leading zero omitted, Abs format (unit mm)*
G04 Created by KiCad (PCBNEW 8.0.4) date 2024-08-07 00:56:22*
%MOMM*%
%LPD*%
G01*
G04 APERTURE LIST*
G04 Aperture macros list*
%AMRoundRect*
0 Rectangle with rounded corners*
0 $1 Rounding radius*
0 $2 $3 $4 $5 $6 $7 $8 $9 X,Y pos of 4 corners*
0 Add a 4 corners polygon primitive as box body*
4,1,4,$2,$3,$4,$5,$6,$7,$8,$9,$2,$3,0*
0 Add four circle primitives for the rounded corners*
1,1,$1+$1,$2,$3*
1,1,$1+$1,$4,$5*
1,1,$1+$1,$6,$7*
1,1,$1+$1,$8,$9*
0 Add four rect primitives between the rounded corners*
20,1,$1+$1,$2,$3,$4,$5,0*
20,1,$1+$1,$4,$5,$6,$7,0*
20,1,$1+$1,$6,$7,$8,$9,0*
20,1,$1+$1,$8,$9,$2,$3,0*%
G04 Aperture macros list end*
%TA.AperFunction,SMDPad,CuDef*%
%ADD10R,4.000000X1.650000*%
%TD*%
%TA.AperFunction,SMDPad,CuDef*%
%ADD11R,1.650000X4.000000*%
%TD*%
%TA.AperFunction,SMDPad,CuDef*%
%ADD12R,1.500000X1.000000*%
%TD*%
%TA.AperFunction,SMDPad,CuDef*%
%ADD13RoundRect,0.225000X0.225000X0.250000X-0.225000X0.250000X-0.225000X-0.250000X0.225000X-0.250000X0*%
%TD*%
%TA.AperFunction,Conductor*%
%ADD14C,0.200000*%
%TD*%
%TA.AperFunction,Conductor*%
%ADD15C,0.762000*%
%TD*%
%TA.AperFunction,Conductor*%
%ADD16C,0.254000*%
%TD*%
G04 APERTURE END LIST*
D10*
%TO.P,J2,1,Pin_1*%
%TO.N,GND*%
X139786000Y-80325000D03*
%TO.P,J2,2,Pin_2*%
%TO.N,Net-(D1-DIN)*%
X139786000Y-77575000D03*
%TO.P,J2,3,Pin_3*%
%TO.N,Net-(D1-DOUT)*%
X139786000Y-74825000D03*
%TO.P,J2,4,Pin_4*%
%TO.N,+12V*%
X139786000Y-72075000D03*
%TD*%
D11*
%TO.P,J1,1,Pin_1*%
%TO.N,GND*%
X148275000Y-88900000D03*
%TO.P,J1,2,Pin_2*%
%TO.N,Net-(D1-BIN)*%
X151025000Y-88900000D03*
%TO.P,J1,3,Pin_3*%
%TO.N,Net-(D1-DIN)*%
X153775000Y-88900000D03*
%TO.P,J1,4,Pin_4*%
%TO.N,+12V*%
X156525000Y-88900000D03*
%TD*%
D12*
%TO.P,D1,1,VCC*%
%TO.N,Net-(D1-VCC)*%
X154850000Y-77800000D03*
%TO.P,D1,2,VDD*%
%TO.N,+12V*%
X154850000Y-76200000D03*
%TO.P,D1,3,DOUT*%
%TO.N,Net-(D1-DOUT)*%
X154850000Y-74600000D03*
%TO.P,D1,4,DIN*%
%TO.N,Net-(D1-DIN)*%
X149950000Y-74600000D03*
%TO.P,D1,5,GND*%
%TO.N,GND*%
X149950000Y-76200000D03*
%TO.P,D1,6,BIN*%
%TO.N,Net-(D1-BIN)*%
X149950000Y-77800000D03*
%TD*%
D13*
%TO.P,C1,1*%
%TO.N,Net-(D1-VCC)*%
X153175000Y-80010000D03*
%TO.P,C1,2*%
%TO.N,GND*%
X151625000Y-80010000D03*
%TD*%
D14*
%TO.N,Net-(D1-DIN)*%
X149950000Y-74600000D02*
X146888000Y-74600000D01*
X146888000Y-74600000D02*
X143913000Y-77575000D01*
X143913000Y-77575000D02*
X139786000Y-77575000D01*
X153775000Y-88900000D02*
X153775000Y-84433000D01*
X152425000Y-75209000D02*
X151816000Y-74600000D01*
X153775000Y-84433000D02*
X152400000Y-83058000D01*
X152425000Y-83033000D02*
X152425000Y-75209000D01*
X152400000Y-83058000D02*
X152425000Y-83033000D01*
X151816000Y-74600000D02*
X149950000Y-74600000D01*
%TO.N,Net-(D1-VCC)*%
X154850000Y-79338000D02*
X154178000Y-80010000D01*
X154850000Y-77800000D02*
X154850000Y-79338000D01*
X154178000Y-80010000D02*
X153175000Y-80010000D01*
D15*
%TO.N,+12V*%
X156525000Y-88900000D02*
X156464000Y-88839000D01*
X156464000Y-88839000D02*
X156464000Y-80010000D01*
X156464000Y-80010000D02*
X156774000Y-79700000D01*
X155956000Y-72136000D02*
X139847000Y-72136000D01*
X156774000Y-79700000D02*
X156774000Y-72954000D01*
X156774000Y-72954000D02*
X155956000Y-72136000D01*
X139847000Y-72136000D02*
X139786000Y-72075000D01*
D16*
%TO.N,Net-(D1-DOUT)*%
X154850000Y-74550000D02*
X153290000Y-74550000D01*
X153290000Y-74550000D02*
X151892000Y-73152000D01*
X151892000Y-73152000D02*
X147066000Y-73152000D01*
X147066000Y-73152000D02*
X145393000Y-74825000D01*
X145393000Y-74825000D02*
X139786000Y-74825000D01*
%TO.N,Net-(D1-BIN)*%
X151025000Y-88900000D02*
X150876000Y-88751000D01*
X149950000Y-80862000D02*
X149950000Y-77850000D01*
X150876000Y-88751000D02*
X150876000Y-81788000D01*
X150876000Y-81788000D02*
X149950000Y-80862000D01*
D15*
%TO.N,GND*%
X139786000Y-80325000D02*
X147381000Y-80325000D01*
X147381000Y-80325000D02*
X148275000Y-81219000D01*
X148275000Y-81219000D02*
X148275000Y-88900000D01*
%TD*%
%TA.AperFunction,Conductor*%
%TO.N,+12V*%
G36*
X157192031Y-71385713D02*
G01*
X157228576Y-71436013D01*
X157233500Y-71467100D01*
X157233500Y-86399400D01*
X157214287Y-86458531D01*
X157163987Y-86495076D01*
X157132900Y-86500000D01*
X155668521Y-86500000D01*
X155574849Y-86514835D01*
X155461955Y-86572358D01*
X155372358Y-86661955D01*
X155314835Y-86774851D01*
X155314834Y-86774854D01*
X155300000Y-86868512D01*
X155300000Y-87392157D01*
X156736707Y-88828864D01*
X156764933Y-88884262D01*
X156755207Y-88945670D01*
X156736707Y-88971134D01*
X155300000Y-90407841D01*
X155300000Y-90407842D01*
X155300001Y-90584899D01*
X155280788Y-90644031D01*
X155230489Y-90680576D01*
X155199401Y-90685500D01*
X154955100Y-90685500D01*
X154895969Y-90666287D01*
X154859424Y-90615987D01*
X154854500Y-90584900D01*
X154854500Y-89842155D01*
X155300000Y-89842155D01*
X156242156Y-88899999D01*
X155300000Y-87957843D01*
X155300000Y-89842155D01*
X154854500Y-89842155D01*
X154854499Y-86874934D01*
X154853222Y-86868512D01*
X154839734Y-86800699D01*
X154839732Y-86800697D01*
X154839732Y-86800695D01*
X154783485Y-86716517D01*
X154783483Y-86716515D01*
X154741678Y-86688582D01*
X154699301Y-86660266D01*
X154699300Y-86660265D01*
X154699299Y-86660265D01*
X154643498Y-86649166D01*
X154625067Y-86645500D01*
X154625066Y-86645500D01*
X154230100Y-86645500D01*
X154170969Y-86626287D01*
X154134424Y-86575987D01*
X154129500Y-86544900D01*
X154129500Y-84386329D01*
X154105341Y-84296168D01*
X154058671Y-84215332D01*
X154058670Y-84215331D01*
X153992668Y-84149328D01*
X153992668Y-84149329D01*
X153953465Y-84110126D01*
X153925239Y-84054728D01*
X153924000Y-84038991D01*
X153924000Y-83058000D01*
X152943009Y-83058000D01*
X152883878Y-83038787D01*
X152871874Y-83028535D01*
X152808965Y-82965626D01*
X152780739Y-82910228D01*
X152779500Y-82894491D01*
X152779500Y-80838095D01*
X152798713Y-80778964D01*
X152849013Y-80742419D01*
X152890856Y-80738072D01*
X152900827Y-80739144D01*
X152904134Y-80739500D01*
X152904136Y-80739500D01*
X153445864Y-80739500D01*
X153502973Y-80733360D01*
X153632163Y-80685175D01*
X153742544Y-80602544D01*
X153825175Y-80492163D01*
X153848381Y-80429945D01*
X153887046Y-80381256D01*
X153942638Y-80364500D01*
X154224671Y-80364500D01*
X154314832Y-80340341D01*
X154395668Y-80293671D01*
X155133671Y-79555668D01*
X155180342Y-79474831D01*
X155204501Y-79384671D01*
X155204501Y-79291328D01*
X155204501Y-79285168D01*
X155204500Y-79285150D01*
X155204500Y-78655099D01*
X155223713Y-78595968D01*
X155274013Y-78559423D01*
X155305100Y-78554499D01*
X155625066Y-78554499D01*
X155699301Y-78539734D01*
X155783484Y-78483484D01*
X155839734Y-78399301D01*
X155854500Y-78325067D01*
X155854499Y-77274934D01*
X155839734Y-77200699D01*
X155839732Y-77200697D01*
X155839732Y-77200695D01*
X155815076Y-77163795D01*
X155798199Y-77103955D01*
X155819718Y-77045624D01*
X155832521Y-77033314D01*
X155832446Y-77033239D01*
X155927641Y-76938044D01*
X155985164Y-76825148D01*
X155985165Y-76825145D01*
X155999999Y-76731487D01*
X156000000Y-76731483D01*
X156000000Y-76400000D01*
X153700001Y-76400000D01*
X153700001Y-76731478D01*
X153714835Y-76825150D01*
X153772358Y-76938044D01*
X153867554Y-77033239D01*
X153866245Y-77034547D01*
X153896957Y-77076827D01*
X153896951Y-77139002D01*
X153884925Y-77163794D01*
X153860265Y-77200700D01*
X153845500Y-77274933D01*
X153845500Y-78325065D01*
X153860266Y-78399301D01*
X153860267Y-78399304D01*
X153916514Y-78483482D01*
X153916515Y-78483483D01*
X153916516Y-78483484D01*
X154000699Y-78539734D01*
X154074933Y-78554500D01*
X154394900Y-78554499D01*
X154454031Y-78573712D01*
X154490576Y-78624012D01*
X154495500Y-78655099D01*
X154495500Y-79149491D01*
X154476287Y-79208622D01*
X154466035Y-79220626D01*
X154060626Y-79626035D01*
X154005228Y-79654261D01*
X153989491Y-79655500D01*
X153942638Y-79655500D01*
X153883507Y-79636287D01*
X153848381Y-79590055D01*
X153825177Y-79527841D01*
X153825174Y-79527835D01*
X153785495Y-79474831D01*
X153742544Y-79417456D01*
X153687353Y-79376140D01*
X153632164Y-79334825D01*
X153632160Y-79334823D01*
X153502973Y-79286640D01*
X153445864Y-79280500D01*
X152904136Y-79280500D01*
X152890854Y-79281928D01*
X152830008Y-79269146D01*
X152788295Y-79223040D01*
X152779500Y-79181904D01*
X152779500Y-75162329D01*
X152755341Y-75072168D01*
X152708671Y-74991332D01*
X152708670Y-74991331D01*
X152642668Y-74925328D01*
X152642668Y-74925329D01*
X152429465Y-74712126D01*
X152401239Y-74656728D01*
X152400000Y-74640991D01*
X152400000Y-74442392D01*
X152419213Y-74383261D01*
X152469513Y-74346716D01*
X152531687Y-74346716D01*
X152571735Y-74371257D01*
X152981206Y-74780728D01*
X152981227Y-74780751D01*
X153055749Y-74855272D01*
X153055753Y-74855276D01*
X153090306Y-74875225D01*
X153142747Y-74905502D01*
X153239775Y-74931501D01*
X153346386Y-74931501D01*
X153346402Y-74931500D01*
X153744901Y-74931500D01*
X153804032Y-74950713D01*
X153840577Y-75001013D01*
X153845501Y-75032100D01*
X153845501Y-75125066D01*
X153856527Y-75180501D01*
X153860266Y-75199301D01*
X153860267Y-75199304D01*
X153884923Y-75236203D01*
X153901800Y-75296042D01*
X153880282Y-75354374D01*
X153867478Y-75366686D01*
X153867553Y-75366761D01*
X153772358Y-75461955D01*
X153714835Y-75574851D01*
X153714834Y-75574854D01*
X153700000Y-75668512D01*
X153700000Y-76000000D01*
X155999999Y-76000000D01*
X155999999Y-75668521D01*
X155985164Y-75574849D01*
X155927641Y-75461955D01*
X155832447Y-75366761D01*
X155833755Y-75365452D01*
X155803044Y-75323178D01*
X155803046Y-75261003D01*
X155815074Y-75236206D01*
X155839734Y-75199301D01*
X155854500Y-75125067D01*
X155854499Y-74074934D01*
X155839734Y-74000699D01*
X155839732Y-74000697D01*
X155839732Y-74000695D01*
X155783485Y-73916517D01*
X155783483Y-73916515D01*
X155699302Y-73860267D01*
X155699301Y-73860266D01*
X155699300Y-73860265D01*
X155699299Y-73860265D01*
X155643498Y-73849166D01*
X155625067Y-73845500D01*
X155625066Y-73845500D01*
X154074934Y-73845500D01*
X154000698Y-73860266D01*
X154000695Y-73860267D01*
X153916517Y-73916514D01*
X153916515Y-73916516D01*
X153860265Y-74000700D01*
X153845499Y-74074937D01*
X153845221Y-74077762D01*
X153844700Y-74078951D01*
X153844536Y-74079780D01*
X153844354Y-74079743D01*
X153820305Y-74134725D01*
X153766664Y-74166163D01*
X153745106Y-74168500D01*
X153489692Y-74168500D01*
X153430561Y-74149287D01*
X153418557Y-74139035D01*
X152429465Y-73149942D01*
X152401239Y-73094544D01*
X152400000Y-73078807D01*
X152400000Y-72898000D01*
X152219192Y-72898000D01*
X152160061Y-72878787D01*
X152148063Y-72868540D01*
X152126247Y-72846724D01*
X152039254Y-72796499D01*
X152039247Y-72796496D01*
X151942229Y-72770500D01*
X151942225Y-72770500D01*
X147015775Y-72770500D01*
X147015770Y-72770500D01*
X146918752Y-72796496D01*
X146918745Y-72796499D01*
X146850137Y-72836109D01*
X146831753Y-72846724D01*
X146809940Y-72868536D01*
X146754545Y-72896761D01*
X146738808Y-72898000D01*
X144780000Y-72898000D01*
X144780000Y-74342900D01*
X144760787Y-74402031D01*
X144710487Y-74438576D01*
X144679400Y-74443500D01*
X142141099Y-74443500D01*
X142081968Y-74424287D01*
X142045423Y-74373987D01*
X142040499Y-74342900D01*
X142040499Y-73974934D01*
X142025734Y-73900699D01*
X142025732Y-73900697D01*
X142025732Y-73900695D01*
X141969485Y-73816517D01*
X141969483Y-73816515D01*
X141927678Y-73788582D01*
X141885301Y-73760266D01*
X141885300Y-73760265D01*
X141885299Y-73760265D01*
X141829498Y-73749166D01*
X141811067Y-73745500D01*
X141811066Y-73745500D01*
X138015100Y-73745500D01*
X137955969Y-73726287D01*
X137919424Y-73675987D01*
X137914500Y-73644900D01*
X137914500Y-73400599D01*
X137933713Y-73341468D01*
X137984013Y-73304923D01*
X138015100Y-73299999D01*
X138278158Y-73299999D01*
X138843843Y-73299999D01*
X140728156Y-73299999D01*
X139786000Y-72357843D01*
X138843843Y-73299999D01*
X138278158Y-73299999D01*
X139714864Y-71863292D01*
X139770262Y-71835066D01*
X139831670Y-71844792D01*
X139857134Y-71863292D01*
X141293841Y-73299999D01*
X141817478Y-73299999D01*
X141911150Y-73285164D01*
X142024044Y-73227641D01*
X142113641Y-73138044D01*
X142171164Y-73025148D01*
X142171165Y-73025145D01*
X142185999Y-72931487D01*
X142185999Y-71467100D01*
X142205212Y-71407969D01*
X142255512Y-71371424D01*
X142286599Y-71366500D01*
X157132900Y-71366500D01*
X157192031Y-71385713D01*
G37*
%TD.AperFunction*%
%TD*%
%TA.AperFunction,Conductor*%
%TO.N,GND*%
G36*
X148904032Y-74973713D02*
G01*
X148940577Y-75024013D01*
X148945501Y-75055100D01*
X148945501Y-75125066D01*
X148956527Y-75180501D01*
X148960266Y-75199301D01*
X148960267Y-75199304D01*
X148984923Y-75236203D01*
X149001800Y-75296042D01*
X148980282Y-75354374D01*
X148967478Y-75366686D01*
X148967553Y-75366761D01*
X148872358Y-75461955D01*
X148814835Y-75574851D01*
X148814834Y-75574854D01*
X148800000Y-75668512D01*
X148800000Y-76000000D01*
X151099999Y-76000000D01*
X151099999Y-75668521D01*
X151085164Y-75574849D01*
X151027641Y-75461955D01*
X150932447Y-75366761D01*
X150933755Y-75365452D01*
X150903044Y-75323178D01*
X150903046Y-75261003D01*
X150915074Y-75236206D01*
X150939734Y-75199301D01*
X150954500Y-75125067D01*
X150954500Y-75055100D01*
X150973713Y-74995969D01*
X151024013Y-74959424D01*
X151055100Y-74954500D01*
X151627491Y-74954500D01*
X151686622Y-74973713D01*
X151698626Y-74983965D01*
X151862535Y-75147874D01*
X151890761Y-75203272D01*
X151892000Y-75219009D01*
X151892000Y-79034400D01*
X151872787Y-79093531D01*
X151849683Y-79110316D01*
X151825000Y-79135000D01*
X151825000Y-80885000D01*
X151841172Y-80901172D01*
X151850531Y-80904213D01*
X151887076Y-80954513D01*
X151892000Y-80985600D01*
X151892000Y-82957400D01*
X151872787Y-83016531D01*
X151822487Y-83053076D01*
X151791400Y-83058000D01*
X151358100Y-83058000D01*
X151298969Y-83038787D01*
X151262424Y-82988487D01*
X151257500Y-82957400D01*
X151257500Y-81846341D01*
X151257501Y-81846328D01*
X151257501Y-81737775D01*
X151257500Y-81737772D01*
X151231502Y-81640747D01*
X151181276Y-81553753D01*
X150360965Y-80733442D01*
X150332739Y-80678044D01*
X150331500Y-80662307D01*
X150331500Y-80323122D01*
X150775000Y-80323122D01*
X150777789Y-80358552D01*
X150821843Y-80510187D01*
X150821844Y-80510188D01*
X150902228Y-80646110D01*
X151013889Y-80757771D01*
X151149811Y-80838155D01*
X151149812Y-80838156D01*
X151301447Y-80882210D01*
X151336877Y-80884999D01*
X151336898Y-80885000D01*
X151425000Y-80885000D01*
X151425000Y-80210000D01*
X150775000Y-80210000D01*
X150775000Y-80323122D01*
X150331500Y-80323122D01*
X150331500Y-79696877D01*
X150775000Y-79696877D01*
X150775000Y-79810000D01*
X151425000Y-79810000D01*
X151425000Y-79135000D01*
X151336877Y-79135000D01*
X151301447Y-79137789D01*
X151149812Y-79181843D01*
X151149811Y-79181844D01*
X151013889Y-79262228D01*
X150902228Y-79373889D01*
X150821844Y-79509811D01*
X150821843Y-79509812D01*
X150777789Y-79661447D01*
X150775000Y-79696877D01*
X150331500Y-79696877D01*
X150331500Y-78655099D01*
X150350713Y-78595968D01*
X150401013Y-78559423D01*
X150432100Y-78554499D01*
X150725066Y-78554499D01*
X150799301Y-78539734D01*
X150883484Y-78483484D01*
X150939734Y-78399301D01*
X150954500Y-78325067D01*
X150954499Y-77274934D01*
X150939734Y-77200699D01*
X150939732Y-77200697D01*
X150939732Y-77200695D01*
X150915076Y-77163795D01*
X150898199Y-77103955D01*
X150919718Y-77045624D01*
X150932521Y-77033314D01*
X150932446Y-77033239D01*
X151027641Y-76938044D01*
X151085164Y-76825148D01*
X151085165Y-76825145D01*
X151099999Y-76731487D01*
X151100000Y-76731483D01*
X151100000Y-76400000D01*
X148800001Y-76400000D01*
X148800001Y-76731478D01*
X148814835Y-76825150D01*
X148872358Y-76938044D01*
X148967554Y-77033239D01*
X148966245Y-77034547D01*
X148996957Y-77076827D01*
X148996951Y-77139002D01*
X148984925Y-77163794D01*
X148960265Y-77200700D01*
X148945500Y-77274933D01*
X148945500Y-78325065D01*
X148960266Y-78399301D01*
X148960267Y-78399304D01*
X149016514Y-78483482D01*
X149016515Y-78483483D01*
X149016516Y-78483484D01*
X149100699Y-78539734D01*
X149174933Y-78554500D01*
X149467900Y-78554499D01*
X149527031Y-78573712D01*
X149563576Y-78624012D01*
X149568500Y-78655099D01*
X149568500Y-80912229D01*
X149594496Y-81009247D01*
X149594499Y-81009254D01*
X149644724Y-81096247D01*
X150465036Y-81916559D01*
X150493261Y-81971955D01*
X150494500Y-81987692D01*
X150494500Y-86544900D01*
X150475287Y-86604031D01*
X150424987Y-86640576D01*
X150393900Y-86645500D01*
X150174934Y-86645500D01*
X150100698Y-86660266D01*
X150100695Y-86660267D01*
X150016517Y-86716514D01*
X150016515Y-86716516D01*
X149960265Y-86800700D01*
X149945500Y-86874933D01*
X149945501Y-90584900D01*
X149926288Y-90644031D01*
X149875988Y-90680576D01*
X149844901Y-90685500D01*
X149600600Y-90685500D01*
X149541469Y-90666287D01*
X149504924Y-90615987D01*
X149500000Y-90584901D01*
X149499999Y-90407844D01*
X149499998Y-90407842D01*
X148063291Y-88971135D01*
X148035065Y-88915737D01*
X148037558Y-88899999D01*
X148557843Y-88899999D01*
X148557843Y-88900000D01*
X149499999Y-89842156D01*
X149499999Y-87957843D01*
X148557843Y-88899999D01*
X148037558Y-88899999D01*
X148044791Y-88854329D01*
X148063291Y-88828865D01*
X148275000Y-88617157D01*
X149499999Y-87392157D01*
X149499999Y-86868521D01*
X149485164Y-86774849D01*
X149427641Y-86661955D01*
X149338044Y-86572358D01*
X149225148Y-86514835D01*
X149225145Y-86514834D01*
X149131487Y-86500000D01*
X147667100Y-86500000D01*
X147607969Y-86480787D01*
X147571424Y-86430487D01*
X147566500Y-86399400D01*
X147566500Y-81468109D01*
X147566499Y-81468102D01*
X147532393Y-81340817D01*
X147532391Y-81340812D01*
X147466499Y-81226685D01*
X147373314Y-81133500D01*
X147373315Y-81133500D01*
X147259187Y-81067608D01*
X147259182Y-81067606D01*
X147131897Y-81033500D01*
X147131892Y-81033500D01*
X142286600Y-81033500D01*
X142227469Y-81014287D01*
X142190924Y-80963987D01*
X142186000Y-80932900D01*
X142185999Y-79468521D01*
X142171164Y-79374849D01*
X142113641Y-79261955D01*
X142024044Y-79172358D01*
X141911148Y-79114835D01*
X141911145Y-79114834D01*
X141817487Y-79100000D01*
X141293841Y-79100000D01*
X140039388Y-80354452D01*
X140039377Y-80354466D01*
X139857135Y-80536708D01*
X139801737Y-80564934D01*
X139740329Y-80555208D01*
X139714865Y-80536708D01*
X139517307Y-80339150D01*
X139517305Y-80339147D01*
X138278158Y-79100000D01*
X138843843Y-79100000D01*
X139785999Y-80042156D01*
X140728156Y-79100000D01*
X138843843Y-79100000D01*
X138278158Y-79100000D01*
X138015100Y-79100000D01*
X137955969Y-79080787D01*
X137919424Y-79030487D01*
X137914500Y-78999400D01*
X137914500Y-78755099D01*
X137933713Y-78695968D01*
X137984013Y-78659423D01*
X138015100Y-78654499D01*
X141811066Y-78654499D01*
X141885301Y-78639734D01*
X141969484Y-78583484D01*
X142025734Y-78499301D01*
X142040500Y-78425067D01*
X142040500Y-78030100D01*
X142059713Y-77970969D01*
X142110013Y-77934424D01*
X142141100Y-77929500D01*
X143959671Y-77929500D01*
X144049832Y-77905341D01*
X144130668Y-77858671D01*
X144235874Y-77753465D01*
X144291272Y-77725238D01*
X144307009Y-77724000D01*
X145288000Y-77724000D01*
X145288000Y-76743008D01*
X145307213Y-76683877D01*
X145317461Y-76671877D01*
X147005373Y-74983964D01*
X147060771Y-74955739D01*
X147076508Y-74954500D01*
X148844901Y-74954500D01*
X148904032Y-74973713D01*
G37*
%TD.AperFunction*%
%TD*%
M02*
